<svg xmlns="http://www.w3.org/2000/svg" viewBox="0 0 800 800" role="img" aria-label="Steaming wood-fired pizza on a rustic wooden board">
  <defs>
    <radialGradient id="bg" cx="50%" cy="55%" r="70%">
      <stop offset="0%" stop-color="#3A201A"/>
      <stop offset="60%" stop-color="#1A110D"/>
      <stop offset="100%" stop-color="#0F0907"/>
    </radialGradient>
    <radialGradient id="board" cx="50%" cy="50%" r="50%">
      <stop offset="0%" stop-color="#5C3A22"/>
      <stop offset="100%" stop-color="#2A1810"/>
    </radialGradient>
    <radialGradient id="dough" cx="45%" cy="45%" r="55%">
      <stop offset="0%" stop-color="#F4D9A8"/>
      <stop offset="70%" stop-color="#D4A24A"/>
      <stop offset="100%" stop-color="#8B5A1F"/>
    </radialGradient>
    <radialGradient id="sauce" cx="50%" cy="50%" r="50%">
      <stop offset="0%" stop-color="#EF4444"/>
      <stop offset="100%" stop-color="#7B1010"/>
    </radialGradient>
    <radialGradient id="glow" cx="50%" cy="40%" r="40%">
      <stop offset="0%" stop-color="#D4A24A" stop-opacity="0.35"/>
      <stop offset="100%" stop-color="#D4A24A" stop-opacity="0"/>
    </radialGradient>
  </defs>
  <rect width="800" height="800" fill="url(#bg)"/>
  <ellipse cx="400" cy="320" rx="380" ry="180" fill="url(#glow)"/>
  <ellipse cx="400" cy="500" rx="320" ry="60" fill="#000" opacity="0.5"/>
  <circle cx="400" cy="430" r="290" fill="url(#board)"/>
  <circle cx="400" cy="430" r="290" fill="none" stroke="#1A0E08" stroke-width="3" opacity="0.6"/>
  <circle cx="400" cy="430" r="240" fill="url(#dough)"/>
  <circle cx="400" cy="430" r="200" fill="url(#sauce)"/>
  <g fill="#F5E9DC" opacity="0.92">
    <ellipse cx="340" cy="380" rx="32" ry="22"/>
    <ellipse cx="450" cy="370" rx="28" ry="20"/>
    <ellipse cx="380" cy="460" rx="34" ry="24"/>
    <ellipse cx="470" cy="480" rx="26" ry="18"/>
    <ellipse cx="320" cy="490" rx="22" ry="16"/>
  </g>
  <g fill="#3F6B2A">
    <path d="M360 410 q-8 -14 6 -22 q14 -8 22 6 q8 14 -6 22 q-14 8 -22 -6z"/>
    <path d="M430 440 q-8 -14 6 -22 q14 -8 22 6 q8 14 -6 22 q-14 8 -22 -6z"/>
    <path d="M395 500 q-8 -14 6 -22 q14 -8 22 6 q8 14 -6 22 q-14 8 -22 -6z"/>
  </g>
  <g fill="#8B1A1A" opacity="0.85">
    <circle cx="300" cy="430" r="14"/>
    <circle cx="500" cy="420" r="12"/>
    <circle cx="420" cy="380" r="10"/>
  </g>
  <g stroke="#F5E9DC" stroke-width="3" fill="none" opacity="0.25" stroke-linecap="round">
    <path d="M340 200 q-10 -30 10 -55 q20 -25 0 -50"/>
    <path d="M420 190 q-12 -30 8 -55 q20 -25 -2 -50"/>
    <path d="M500 210 q-10 -30 10 -55 q20 -25 0 -50"/>
  </g>
</svg>
